<?xml version="1.0" encoding="UTF-8" standalone="no"?>
<!-- Created with Inkscape (http://www.inkscape.org/) -->

<svg
   width="211.93457mm"
   height="38.067833mm"
   viewBox="0 0 211.93457 38.067833"
   version="1.1"
   id="svg1"
   xml:space="preserve"
   sodipodi:docname="full_logo.svg"
   inkscape:version="1.4 (86a8ad7, 2024-10-11)"
   xmlns:inkscape="http://www.inkscape.org/namespaces/inkscape"
   xmlns:sodipodi="http://sodipodi.sourceforge.net/DTD/sodipodi-0.dtd"
   xmlns="http://www.w3.org/2000/svg"
   xmlns:svg="http://www.w3.org/2000/svg"><sodipodi:namedview
     id="namedview1"
     pagecolor="#ffffff"
     bordercolor="#000000"
     borderopacity="0.25"
     inkscape:showpageshadow="2"
     inkscape:pageopacity="0.0"
     inkscape:pagecheckerboard="0"
     inkscape:deskcolor="#d1d1d1"
     inkscape:document-units="mm"
     inkscape:zoom="1.1399789"
     inkscape:cx="325.88321"
     inkscape:cy="206.58276"
     inkscape:window-width="2560"
     inkscape:window-height="1494"
     inkscape:window-x="-11"
     inkscape:window-y="-11"
     inkscape:window-maximized="1"
     inkscape:current-layer="g128" /><defs
     id="defs1"><clipPath
       id="clipPath18"
       clipPathUnits="userSpaceOnUse"><path
         id="path16"
         d="M 0,70.548 H 108.836 V 0 H 0 Z" /></clipPath></defs><g
     id="g127"
     transform="matrix(0.72744064,0,0,0.72744064,-27.094123,-52.839833)"><g
       id="g128"
       transform="matrix(0.65045732,0,0,0.65045732,99.260258,47.788507)"
       style="stroke-width:3.52731;stroke-dasharray:none"><g
         id="g13"
         transform="translate(0.58465209,-0.29232605)"
         style="stroke-width:3.52731;stroke-dasharray:none"><path
           id="path1"
           style="fill:#ff0000;stroke:#800000;stroke-width:3.52731;stroke-dasharray:none"
           d="m 62.068883,51.383695 c 10.277999,0.0508 18.569129,8.4233 18.519599,18.70131 -0.0495,10.278003 -17.905253,45.112535 -17.905253,45.112535 0,0 -19.36498,-35.009288 -19.318003,-45.287305 0.04698,-10.27802 8.416362,-18.57228 18.694386,-18.52658" /><path
           style="fill:#1a1a1a;stroke:#1a1a1a;stroke-width:2.80312;stroke-dasharray:none"
           id="path2"
           d="m 61.946507,78.13236 a 6.1501596,6.1501596 0 0 1 -6.119681,-6.179726 6.1501596,6.1501596 0 0 1 6.178964,-6.12045 6.1501596,6.1501596 0 0 1 6.12122,6.178202 6.1501596,6.1501596 0 0 1 -6.17744,6.121988" /></g><path
         id="rect126"
         style="fill:#4d4d4d;stroke:#1a1a1a;stroke-width:3.52728;stroke-dasharray:none"
         d="M 41.183276,43.132297 108.07857,40.165155 90.687273,57.677687 23.605676,60.653094 Z" /><path
         style="fill:#d4aa00;stroke:#1a1a1a;stroke-width:2.57296;stroke-dasharray:none"
         id="path126"
         d="m 31.233734,81.446819 a 5.7529671,5.7529671 0 0 1 -5.724458,-5.780623 5.7529671,5.7529671 0 0 1 5.779911,-5.725176 5.7529671,5.7529671 0 0 1 5.725896,5.779198 5.7529671,5.7529671 0 0 1 -5.778485,5.726616" /><path
         style="fill:#d4aa00;stroke:#1a1a1a;stroke-width:1.98157;stroke-dasharray:none"
         d="M 31.262176,70.602408 V 59.880857"
         id="path127" /></g><g
       clip-path="url(#clipPath18)"
       id="g14"
       transform="matrix(1.2006968,0,0,-1.2006968,7.524371,140.9448)"><g
         transform="translate(34.1265,24.3998)"
         id="g20"><path
           id="path22"
           style="fill:#0e1531;fill-opacity:1;fill-rule:nonzero;stroke:none"
           d="m 0,0 c -5.868,0 -9.373,3.141 -9.373,8.417 v 12.632 h 4.866 V 8.616 c 0,-3.065 1.611,-4.751 4.545,-4.751 3.008,0 4.603,1.614 4.603,4.664 v 12.52 H 9.539 V 8.501 C 9.539,3.256 5.884,0 0,0" /></g><g
         transform="translate(54.5986,24.7504)"
         id="g24"><path
           id="path26"
           style="fill:#0e1531;fill-opacity:1;fill-rule:nonzero;stroke:none"
           d="m 0,0 h -6.795 v 20.699 h 6.896 c 5.041,0 7.818,-1.958 7.818,-5.498 0,-1.863 -0.971,-3.297 -2.826,-4.175 C 7.58,10.148 8.843,8.506 8.843,6.132 8.843,2.175 5.705,0 0,0 M -2.094,3.456 H 0 c 1.893,0 4.142,0.483 4.142,2.791 0,2.378 -2.288,2.884 -4.211,2.884 h -2.025 z m 0,8.928 h 1.768 c 2.368,0 3.678,0.888 3.678,2.498 0,1.584 -1.143,2.356 -3.485,2.356 h -1.961 z" /></g><g
         transform="translate(77.0693,24.3998)"
         id="g28"><path
           id="path30"
           style="fill:#0e1531;fill-opacity:1;fill-rule:nonzero;stroke:none"
           d="m 0,0 c -6.7,0 -11.026,4.184 -11.026,10.672 0,6.411 4.484,10.723 11.158,10.723 2.475,0 4.557,-0.487 6.366,-1.491 L 6.657,19.816 5.93,15.601 5.609,15.814 c -1.776,1.193 -3.466,1.743 -5.312,1.743 -3.981,0 -6.36,-2.565 -6.36,-6.859 0,-4.216 2.46,-6.833 6.426,-6.833 1.878,0 3.726,0.564 5.65,1.722 L 6.331,5.777 7.017,1.846 6.864,1.757 C 4.889,0.626 2.452,0 0,0" /></g></g><text
       xml:space="preserve"
       style="font-size:4.36462px;text-align:start;writing-mode:lr-tb;direction:ltr;text-anchor:start;fill:#1a1a1a;stroke:#1a1a1a;stroke-width:2.74937;stroke-dasharray:none"
       x="157.47473"
       y="134.0117"
       id="text128"><tspan
         id="tspan128"
         style="stroke-width:2.74937"
         x="157.47473"
         y="134.0117" /></text><g
       id="text129"
       style="font-size:11.9372px;letter-spacing:0.429054px;white-space:pre;fill:#1a1a1a;stroke:#1a1a1a;stroke-width:0"
       transform="matrix(2.5779716,0,0,2.5088207,-1210.0698,-982.56388)"
       aria-label="gradMap&#10;"><g
         id="text1"
         style="font-weight:600;font-size:13.3484px;font-family:Montserrat;-inkscape-font-specification:'Montserrat Semi-Bold';fill:#ffad32;stroke:#ffad32;stroke-width:0.27027"
         transform="matrix(0.98649693,0,0,1.0136879,-4.7969562,2.5962647)"
         aria-label="GradMap"><path
           style="fill:#005bd8;stroke:#005bd8"
           d="m 550.6508,427.29391 q -1.09456,0 -2.0156,-0.34705 -0.9077,-0.36041 -1.58846,-1.00113 -0.68077,-0.65408 -1.05453,-1.53507 -0.37375,-0.88099 -0.37375,-1.92217 0,-1.04117 0.37375,-1.92217 0.37376,-0.88099 1.05453,-1.52172 0.69411,-0.65407 1.61515,-1.00113 0.92104,-0.3604 2.01561,-0.3604 1.18801,0 2.13575,0.3871 0.96108,0.3871 1.61515,1.13461 l -1.09457,1.06788 q -0.54728,-0.54729 -1.188,-0.80091 -0.62738,-0.26697 -1.38824,-0.26697 -0.73416,0 -1.36154,0.24028 -0.62737,0.24027 -1.08122,0.68076 -0.45384,0.4405 -0.70746,1.04118 -0.24027,0.60068 -0.24027,1.32149 0,0.70747 0.24027,1.30814 0.25362,0.60068 0.70746,1.05453 0.45385,0.44049 1.06788,0.68077 0.61402,0.24027 1.36153,0.24027 0.69412,0 1.33484,-0.21358 0.65407,-0.22692 1.2414,-0.74751 l 0.98779,1.2948 q -0.73417,0.58733 -1.7086,0.89434 -0.96108,0.29366 -1.94887,0.29366 z m 3.65747,-1.188 -1.64186,-0.22693 v -3.49728 h 1.64186 z m 2.55144,1.05452 v -7.12804 h 1.58846 v 1.96221 l -0.18688,-0.57398 q 0.32036,-0.72081 1.00113,-1.09457 0.69412,-0.37376 1.72194,-0.37376 v 1.58846 q -0.10678,-0.0267 -0.20022,-0.0267 -0.0934,-0.0133 -0.18688,-0.0133 -0.94774,0 -1.50837,0.56063 -0.56063,0.54729 -0.56063,1.64186 v 3.45723 z m 9.85232,0 v -1.44163 l -0.0934,-0.30701 v -2.52285 q 0,-0.73416 -0.4405,-1.13461 -0.44049,-0.4138 -1.33484,-0.4138 -0.60067,0 -1.188,0.18688 -0.57398,0.18687 -0.97444,0.52058 l -0.65407,-1.2147 q 0.57398,-0.4405 1.36154,-0.65407 0.8009,-0.22693 1.6552,-0.22693 1.54841,0 2.38936,0.74752 0.8543,0.73416 0.8543,2.28257 v 4.17805 z m -2.24253,0.0934 q -0.80091,0 -1.40158,-0.26697 -0.60068,-0.28031 -0.93439,-0.76086 -0.32036,-0.49389 -0.32036,-1.10791 0,-0.60068 0.28031,-1.08122 0.29367,-0.48055 0.94774,-0.76086 0.65407,-0.28032 1.73529,-0.28032 h 2.069 v 1.10792 h -1.94886 q -0.8543,0 -1.14796,0.28031 -0.29367,0.26697 -0.29367,0.66742 0,0.45385 0.36041,0.72082 0.3604,0.26697 1.00113,0.26697 0.61402,0 1.09457,-0.28032 0.49389,-0.28032 0.70746,-0.8276 l 0.28032,1.00113 q -0.24027,0.62737 -0.86765,0.97443 -0.61402,0.34706 -1.56176,0.34706 z m 9.41652,0 q -1.02783,0 -1.85543,-0.45385 -0.81425,-0.46719 -1.28144,-1.28144 -0.4672,-0.81425 -0.4672,-1.92217 0,-1.10792 0.4672,-1.92217 0.46719,-0.81425 1.28144,-1.2681 0.8276,-0.45385 1.85543,-0.45385 0.89434,0 1.60181,0.40046 0.70746,0.3871 1.12126,1.188 0.4138,0.80091 0.4138,2.05566 0,1.2414 -0.40045,2.05565 -0.40045,0.80091 -1.10791,1.20136 -0.70747,0.40045 -1.62851,0.40045 z m 0.20023,-1.42828 q 0.60067,0 1.06787,-0.26697 0.48054,-0.26697 0.76086,-0.7742 0.29366,-0.50724 0.29366,-1.18801 0,-0.69412 -0.29366,-1.18801 -0.28032,-0.50724 -0.76086,-0.77421 -0.4672,-0.26696 -1.06787,-0.26696 -0.60068,0 -1.08122,0.26696 -0.4672,0.26697 -0.76086,0.77421 -0.28032,0.49389 -0.28032,1.18801 0,0.68077 0.28032,1.18801 0.29366,0.50723 0.76086,0.7742 0.48054,0.26697 1.08122,0.26697 z m 2.16244,1.33484 v -1.6819 l 0.0667,-1.89547 -0.13348,-1.89547 v -4.43167 h 1.6552 v 9.90451 z"
           id="path3" /><path
           d="m 580.62887,427.16043 v -9.34388 h 1.42828 l 4.08461,6.82103 h -0.74751 l 4.01787,-6.82103 h 1.42828 l 0.0133,9.34388 h -1.64186 l -0.0133,-6.76764 h 0.34705 l -3.41719,5.69977 h -0.7742 l -3.47059,-5.69977 h 0.40045 v 6.76764 z m 17.40822,0 v -1.44163 l -0.0934,-0.30701 v -2.52285 q 0,-0.73416 -0.4405,-1.13461 -0.4405,-0.4138 -1.33484,-0.4138 -0.60068,0 -1.18801,0.18688 -0.57398,0.18687 -0.97443,0.52058 l -0.65407,-1.2147 q 0.57398,-0.4405 1.36154,-0.65407 0.8009,-0.22693 1.6552,-0.22693 1.54841,0 2.38936,0.74752 0.8543,0.73416 0.8543,2.28257 v 4.17805 z m -2.24253,0.0934 q -0.80091,0 -1.40159,-0.26697 -0.60067,-0.28031 -0.93438,-0.76086 -0.32036,-0.49389 -0.32036,-1.10791 0,-0.60068 0.28031,-1.08122 0.29367,-0.48055 0.94774,-0.76086 0.65407,-0.28032 1.73529,-0.28032 h 2.069 v 1.10792 h -1.94886 q -0.8543,0 -1.14797,0.28031 -0.29366,0.26697 -0.29366,0.66742 0,0.45385 0.36041,0.72082 0.3604,0.26697 1.00113,0.26697 0.61402,0 1.09456,-0.28032 0.49389,-0.28032 0.70747,-0.8276 l 0.28032,1.00113 q -0.24028,0.62737 -0.86765,0.97443 -0.61403,0.34706 -1.56176,0.34706 z m 10.33357,0 q -0.86765,0 -1.58846,-0.40045 -0.70746,-0.40045 -1.13461,-1.20136 -0.4138,-0.81425 -0.4138,-2.05565 0,-1.25475 0.40045,-2.05566 0.4138,-0.8009 1.12126,-1.188 0.70747,-0.40046 1.61516,-0.40046 1.05452,0 1.85543,0.45385 0.81425,0.45385 1.28144,1.2681 0.48055,0.81425 0.48055,1.92217 0,1.10792 -0.48055,1.93552 -0.46719,0.81425 -1.28144,1.26809 -0.80091,0.45385 -1.85543,0.45385 z m -3.95113,2.49615 v -9.71763 h 1.58846 v 1.68189 l -0.0534,1.89548 0.13348,1.89547 v 4.24479 z m 3.76425,-3.92443 q 0.60068,0 1.06788,-0.26697 0.48054,-0.26697 0.76085,-0.7742 0.28032,-0.50724 0.28032,-1.18801 0,-0.69412 -0.28032,-1.18801 -0.28031,-0.50724 -0.76085,-0.77421 -0.4672,-0.26696 -1.06788,-0.26696 -0.60067,0 -1.08122,0.26696 -0.48054,0.26697 -0.76086,0.77421 -0.28031,0.49389 -0.28031,1.18801 0,0.68077 0.28031,1.18801 0.28032,0.50723 0.76086,0.7742 0.48055,0.26697 1.08122,0.26697 z"
           id="path4" /></g></g></g></svg>
