<?xml version="1.0" encoding="UTF-8" standalone="no"?>
<!-- Created with Inkscape (http://www.inkscape.org/) -->

<svg
   width="201.37021mm"
   height="43.831665mm"
   viewBox="0 0 201.37021 43.831665"
   version="1.1"
   id="svg1"
   xml:space="preserve"
   xmlns="http://www.w3.org/2000/svg"
   xmlns:svg="http://www.w3.org/2000/svg"><defs
     id="defs1"><clipPath
       id="clipPath18"
       clipPathUnits="userSpaceOnUse"><path
         id="path16"
         d="M 0,70.548 H 108.836 V 0 H 0 Z" /></clipPath></defs><g
     id="layer1"
     transform="translate(-29.55258,-79.622231)"><g
       id="g127"
       transform="matrix(0.72744064,0,0,0.72744064,6.1626239,25.917763)"><g
         id="g128"
         transform="matrix(0.77945119,0,0,0.77945119,91.699582,42.860542)"><g
           id="g13"
           transform="translate(0.58465209,-0.29232605)"
           style="stroke-width:2;stroke-dasharray:none"><path
             id="path1"
             style="fill:#ff0000;stroke:#1a1a1a;stroke-width:2;stroke-dasharray:none"
             d="m 62.068883,51.383695 c 10.277999,0.0508 18.569129,8.4233 18.519599,18.70131 -0.0495,10.278003 -17.905253,45.112535 -17.905253,45.112535 0,0 -19.36498,-35.009288 -19.318003,-45.287305 0.04698,-10.27802 8.416362,-18.57228 18.694386,-18.52658" /><path
             style="fill:#1a1a1a;stroke:#1a1a1a;stroke-width:2;stroke-dasharray:none"
             id="path2"
             d="m 61.938654,79.176475 a 7.7390623,7.7390623 0 0 1 -7.700709,-7.776267 7.7390623,7.7390623 0 0 1 7.775308,-7.701677 7.7390623,7.7390623 0 0 1 7.702646,7.774349 7.7390623,7.7390623 0 0 1 -7.77339,7.703613" /></g><path
           id="rect126"
           style="fill:#1a1a1a;stroke:#1a1a1a;stroke-width:0.785852"
           d="M 41.183276,43.132297 108.07857,40.165155 90.687273,57.677687 23.605676,60.653094 Z" /><path
           style="fill:#d4aa00;stroke:#1a1a1a;stroke-width:2;stroke-dasharray:none"
           id="path126"
           d="m 31.248891,74.943199 a 2.6871746,2.6871746 0 0 1 -2.673858,-2.700092 2.6871746,2.6871746 0 0 1 2.69976,-2.674194 2.6871746,2.6871746 0 0 1 2.67453,2.699427 2.6871746,2.6871746 0 0 1 -2.699094,2.674866" /><path
           style="fill:#d4aa00;stroke:#1a1a1a;stroke-width:2;stroke-dasharray:none"
           d="M 31.262176,70.602408 V 58.40677"
           id="path127" /></g><g
         clip-path="url(#clipPath18)"
         id="g14"
         transform="matrix(1.2006968,0,0,-1.2006968,2.4323176,149.23004)"><g
           transform="translate(34.1265,24.3998)"
           id="g20"><path
             id="path22"
             style="fill:#0e1531;fill-opacity:1;fill-rule:nonzero;stroke:none"
             d="m 0,0 c -5.868,0 -9.373,3.141 -9.373,8.417 v 12.632 h 4.866 V 8.616 c 0,-3.065 1.611,-4.751 4.545,-4.751 3.008,0 4.603,1.614 4.603,4.664 v 12.52 H 9.539 V 8.501 C 9.539,3.256 5.884,0 0,0" /></g><g
           transform="translate(54.5986,24.7504)"
           id="g24"><path
             id="path26"
             style="fill:#0e1531;fill-opacity:1;fill-rule:nonzero;stroke:none"
             d="m 0,0 h -6.795 v 20.699 h 6.896 c 5.041,0 7.818,-1.958 7.818,-5.498 0,-1.863 -0.971,-3.297 -2.826,-4.175 C 7.58,10.148 8.843,8.506 8.843,6.132 8.843,2.175 5.705,0 0,0 M -2.094,3.456 H 0 c 1.893,0 4.142,0.483 4.142,2.791 0,2.378 -2.288,2.884 -4.211,2.884 h -2.025 z m 0,8.928 h 1.768 c 2.368,0 3.678,0.888 3.678,2.498 0,1.584 -1.143,2.356 -3.485,2.356 h -1.961 z" /></g><g
           transform="translate(77.0693,24.3998)"
           id="g28"><path
             id="path30"
             style="fill:#0e1531;fill-opacity:1;fill-rule:nonzero;stroke:none"
             d="m 0,0 c -6.7,0 -11.026,4.184 -11.026,10.672 0,6.411 4.484,10.723 11.158,10.723 2.475,0 4.557,-0.487 6.366,-1.491 L 6.657,19.816 5.93,15.601 5.609,15.814 c -1.776,1.193 -3.466,1.743 -5.312,1.743 -3.981,0 -6.36,-2.565 -6.36,-6.859 0,-4.216 2.46,-6.833 6.426,-6.833 1.878,0 3.726,0.564 5.65,1.722 L 6.331,5.777 7.017,1.846 6.864,1.757 C 4.889,0.626 2.452,0 0,0" /></g></g><text
         xml:space="preserve"
         style="font-size:4.36462px;text-align:start;writing-mode:lr-tb;direction:ltr;text-anchor:start;fill:#1a1a1a;stroke:#1a1a1a;stroke-width:2.74937;stroke-dasharray:none"
         x="157.47473"
         y="134.0117"
         id="text128"><tspan
           id="tspan128"
           style="stroke-width:2.74937"
           x="157.47473"
           y="134.0117" /></text><g
         id="text129"
         style="font-size:11.9372px;letter-spacing:0.429054px;white-space:pre;fill:#1a1a1a;stroke:#1a1a1a;stroke-width:0"
         transform="matrix(2.5779716,0,0,2.5088207,-1200.6136,-975.71263)"
         aria-label="gradMap&#10;"><path
           style="fill:#005bd8"
           d="m 538.39037,433.58792 q 0,1.65536 -0.7519,2.43058 -0.7519,0.77521 -2.314,0.77521 -0.51875,0 -1.01419,-0.0758 -0.48962,-0.0699 -0.96757,-0.204 v -1.11912 h 0.0583 q 0.26812,0.10492 0.85099,0.25647 0.58287,0.15737 1.16574,0.15737 0.55956,0 0.92677,-0.13406 0.3672,-0.13406 0.57121,-0.37304 0.204,-0.22732 0.29144,-0.5479 0.0874,-0.32057 0.0874,-0.71693 v -0.59452 q -0.49544,0.39635 -0.95008,0.59452 -0.44881,0.19235 -1.14826,0.19235 -1.16574,0 -1.85353,-0.83933 -0.68196,-0.84517 -0.68196,-2.37812 0,-0.83933 0.23315,-1.44552 0.23898,-0.61201 0.64699,-1.05499 0.37886,-0.41384 0.92093,-0.64116 0.54207,-0.23315 1.07831,-0.23315 0.56539,0 0.94426,0.11657 0.38469,0.11075 0.81019,0.3439 l 0.0699,-0.27978 h 1.02585 z m -1.09579,-1.04917 v -3.54968 q -0.43716,-0.19818 -0.81602,-0.27978 -0.37304,-0.0874 -0.74608,-0.0874 -0.90345,0 -1.4222,0.60619 -0.51876,0.60618 -0.51876,1.76027 0,1.0958 0.3847,1.66118 0.38469,0.56539 1.27648,0.56539 0.47796,0 0.95591,-0.18069 0.48378,-0.18652 0.88597,-0.49545 z m 7.74408,-3.52637 h -0.0583 q -0.2448,-0.0583 -0.47795,-0.0816 -0.22732,-0.0291 -0.54207,-0.0291 -0.5071,0 -0.97922,0.22732 -0.47213,0.22149 -0.90928,0.57704 v 4.62217 h -1.0958 v -6.51067 h 1.0958 v 0.96174 q 0.65281,-0.52459 1.14825,-0.74025 0.50127,-0.22149 1.02003,-0.22149 0.2856,0 0.41384,0.0175 0.12823,0.0116 0.38469,0.0525 z m 6.31022,5.31579 h -1.08996 v -0.69362 q -0.14572,0.0991 -0.39636,0.27978 -0.2448,0.17486 -0.47795,0.27978 -0.27395,0.13406 -0.6295,0.22149 -0.35555,0.0933 -0.83351,0.0933 -0.88013,0 -1.49215,-0.58287 -0.61201,-0.58287 -0.61201,-1.48632 0,-0.74025 0.31475,-1.19489 0.32058,-0.46047 0.90928,-0.72276 0.59453,-0.26229 1.42803,-0.35555 0.83351,-0.0933 1.78942,-0.13989 v -0.16903 q 0,-0.37304 -0.13406,-0.61785 -0.12824,-0.2448 -0.37304,-0.38469 -0.23315,-0.13406 -0.55956,-0.18069 -0.32641,-0.0466 -0.68196,-0.0466 -0.43132,0 -0.96173,0.11657 -0.53042,0.11075 -1.0958,0.32641 h -0.0583 v -1.11328 q 0.32058,-0.0874 0.92677,-0.19235 0.60618,-0.10492 1.19488,-0.10492 0.68779,0 1.19489,0.11658 0.51292,0.11074 0.88596,0.38469 0.36721,0.26812 0.55956,0.69362 0.19234,0.4255 0.19234,1.055 z m -1.08996,-1.6029 v -1.81273 q -0.50127,0.0292 -1.18323,0.0874 -0.67613,0.0583 -1.07249,0.16903 -0.47212,0.13406 -0.76356,0.41967 -0.29143,0.27977 -0.29143,0.77521 0,0.55956 0.33806,0.84517 0.33807,0.27977 1.03169,0.27977 0.57704,0 1.05499,-0.22149 0.47796,-0.22732 0.88597,-0.54207 z m 8.90982,1.6029 h -1.09579 v -0.68196 q -0.47213,0.40801 -0.98506,0.63533 -0.51292,0.22732 -1.11328,0.22732 -1.16574,0 -1.85353,-0.89762 -0.68196,-0.89762 -0.68196,-2.48886 0,-0.82768 0.23315,-1.47467 0.23898,-0.64698 0.64116,-1.10162 0.39635,-0.44298 0.92093,-0.67613 0.53042,-0.23315 1.0958,-0.23315 0.51293,0 0.90928,0.11074 0.39635,0.10492 0.83351,0.33224 v -2.82109 h 1.09579 z m -1.09579,-1.6029 v -3.7362 q -0.44299,-0.19818 -0.79271,-0.27395 -0.34972,-0.0758 -0.76356,-0.0758 -0.92094,0 -1.43386,0.64116 -0.51293,0.64115 -0.51293,1.81855 0,1.15992 0.39635,1.7661 0.39636,0.60036 1.27066,0.60036 0.4663,0 0.94425,-0.204 0.47796,-0.20984 0.8918,-0.53625 z"
           id="path3" /><path
           style="fill:#ffad32"
           d="m 569.57072,434.32817 h -1.15408 v -7.47824 l -2.41309,5.08847 h -0.68779 l -2.3956,-5.08847 v 7.47824 h -1.07831 v -8.67895 h 1.57375 l 2.314,4.832 2.23823,-4.832 h 1.60289 z m 7.73243,0 h -1.08997 v -0.69362 q -0.14571,0.0991 -0.39635,0.27978 -0.2448,0.17486 -0.47795,0.27978 -0.27395,0.13406 -0.6295,0.22149 -0.35556,0.0933 -0.83351,0.0933 -0.88014,0 -1.49215,-0.58287 -0.61201,-0.58287 -0.61201,-1.48632 0,-0.74025 0.31475,-1.19489 0.32058,-0.46047 0.90927,-0.72276 0.59453,-0.26229 1.42804,-0.35555 0.8335,-0.0933 1.78941,-0.13989 v -0.16903 q 0,-0.37304 -0.13406,-0.61785 -0.12823,-0.2448 -0.37303,-0.38469 -0.23315,-0.13406 -0.55956,-0.18069 -0.32641,-0.0466 -0.68196,-0.0466 -0.43132,0 -0.96174,0.11657 -0.53041,0.11075 -1.09579,0.32641 h -0.0583 v -1.11328 q 0.32058,-0.0874 0.92676,-0.19235 0.60619,-0.10492 1.19489,-0.10492 0.68779,0 1.19488,0.11658 0.51293,0.11074 0.88597,0.38469 0.36721,0.26812 0.55955,0.69362 0.19235,0.4255 0.19235,1.055 z m -1.08997,-1.6029 v -1.81273 q -0.50127,0.0292 -1.18323,0.0874 -0.67613,0.0583 -1.07248,0.16903 -0.47212,0.13406 -0.76356,0.41967 -0.29143,0.27977 -0.29143,0.77521 0,0.55956 0.33806,0.84517 0.33807,0.27977 1.03168,0.27977 0.57704,0 1.055,-0.22149 0.47795,-0.22732 0.88596,-0.54207 z m 9.35864,-1.73112 q 0,0.7927 -0.22732,1.45135 -0.22732,0.65281 -0.64116,1.10745 -0.38469,0.43133 -0.90928,0.6703 -0.51875,0.23315 -1.10162,0.23315 -0.5071,0 -0.92094,-0.11074 -0.40801,-0.11075 -0.83351,-0.3439 v 2.72784 h -1.09579 v -8.9121 h 1.09579 v 0.68196 q 0.43716,-0.36721 0.97923,-0.61202 0.5479,-0.25063 1.16574,-0.25063 1.1774,0 1.83022,0.89179 0.65864,0.88597 0.65864,2.46555 z m -1.13077,0.0291 q 0,-1.1774 -0.40218,-1.76027 -0.40218,-0.58287 -1.23569,-0.58287 -0.47212,0 -0.95008,0.204 -0.47795,0.20401 -0.91511,0.53624 v 3.68958 q 0.4663,0.20983 0.79854,0.28561 0.33806,0.0758 0.76356,0.0758 0.91511,0 1.42803,-0.61784 0.51293,-0.61785 0.51293,-1.83022 z"
           id="path4" /></g></g></g></svg>
