<?xml version="1.0" encoding="UTF-8" standalone="no"?>
<!-- Created with Inkscape (http://www.inkscape.org/) -->

<svg
   width="46.59029mm"
   height="45.910027mm"
   viewBox="0 0 46.59029 45.910027"
   version="1.1"
   id="svg1"
   xml:space="preserve"
   sodipodi:docname="icon.svg"
   inkscape:version="1.4 (86a8ad7, 2024-10-11)"
   xmlns:inkscape="http://www.inkscape.org/namespaces/inkscape"
   xmlns:sodipodi="http://sodipodi.sourceforge.net/DTD/sodipodi-0.dtd"
   xmlns="http://www.w3.org/2000/svg"
   xmlns:svg="http://www.w3.org/2000/svg"><sodipodi:namedview
     id="namedview1"
     pagecolor="#ffffff"
     bordercolor="#000000"
     borderopacity="0.25"
     inkscape:showpageshadow="2"
     inkscape:pageopacity="0.0"
     inkscape:pagecheckerboard="0"
     inkscape:deskcolor="#d1d1d1"
     inkscape:document-units="mm"
     inkscape:zoom="1.6121736"
     inkscape:cx="109.47952"
     inkscape:cy="156.00057"
     inkscape:window-width="2560"
     inkscape:window-height="1494"
     inkscape:window-x="-11"
     inkscape:window-y="-11"
     inkscape:window-maximized="1"
     inkscape:current-layer="g128" /><defs
     id="defs1"><clipPath
       id="clipPath18"
       clipPathUnits="userSpaceOnUse"><path
         id="path16"
         d="M 0,70.548 H 108.836 V 0 H 0 Z" /></clipPath></defs><g
     id="g127"
     transform="matrix(0.72744064,0,0,0.72744064,-88.878717,-59.502934)"><text
       xml:space="preserve"
       style="font-size:4.36462px;text-align:start;writing-mode:lr-tb;direction:ltr;text-anchor:start;fill:#1a1a1a;stroke:#1a1a1a;stroke-width:2.74937;stroke-dasharray:none"
       x="157.47473"
       y="134.0117"
       id="text128"><tspan
         id="tspan128"
         style="stroke-width:2.74937"
         x="157.47473"
         y="134.0117" /></text><path
       style="fill:#f8d238;fill-opacity:1;stroke:#005b8f;stroke-width:3.00738;stroke-dasharray:none;stroke-opacity:1"
       id="path3"
       sodipodi:type="arc"
       sodipodi:cx="153.73589"
       sodipodi:cy="113.35351"
       sodipodi:rx="30.052162"
       sodipodi:ry="30.052162"
       sodipodi:start="1.5757405"
       sodipodi:end="1.5752424"
       sodipodi:open="true"
       sodipodi:arc-type="arc"
       d="m 153.5873,143.4053 a 30.052162,30.052162 0 0 1 -29.90323,-30.19663 30.052162,30.052162 0 0 1 30.19291,-29.906993 30.052162,30.052162 0 0 1 29.91075,30.189183 30.052162,30.052162 0 0 1 -30.18546,29.91451" /><g
       id="g128"
       transform="matrix(0.65045732,0,0,0.65045732,113.04226,62.863392)"
       style="stroke-width:3.52731;stroke-dasharray:none"><g
         id="g13"
         transform="translate(0.58465209,-0.29232605)"
         style="stroke-width:3.52731;stroke-dasharray:none"><path
           id="path1"
           style="fill:#ff0000;stroke:#800000;stroke-width:3.52731;stroke-dasharray:none"
           d="m 62.068883,51.383695 c 10.277999,0.0508 18.569129,8.4233 18.519599,18.70131 -0.0495,10.278003 -17.905253,45.112535 -17.905253,45.112535 0,0 -19.36498,-35.009288 -19.318003,-45.287305 0.04698,-10.27802 8.416362,-18.57228 18.694386,-18.52658" /><path
           style="fill:#1a1a1a;stroke:#1a1a1a;stroke-width:2.80312;stroke-dasharray:none"
           id="path2"
           d="m 61.946507,78.13236 a 6.1501596,6.1501596 0 0 1 -6.119681,-6.179726 6.1501596,6.1501596 0 0 1 6.178964,-6.12045 6.1501596,6.1501596 0 0 1 6.12122,6.178202 6.1501596,6.1501596 0 0 1 -6.17744,6.121988" /></g><path
         id="rect126"
         style="fill:#4d4d4d;stroke:#1a1a1a;stroke-width:3.52728;stroke-dasharray:none"
         d="M 41.183276,43.132297 108.07857,40.165155 90.687273,57.677687 23.605676,60.653094 Z" /><path
         style="fill:#d4aa00;stroke:#1a1a1a;stroke-width:2.57296;stroke-dasharray:none"
         id="path126"
         d="m 31.233734,81.446819 a 5.7529671,5.7529671 0 0 1 -5.724458,-5.780623 5.7529671,5.7529671 0 0 1 5.779911,-5.725176 5.7529671,5.7529671 0 0 1 5.725896,5.779198 5.7529671,5.7529671 0 0 1 -5.778485,5.726616" /><path
         style="fill:#d4aa00;stroke:#1a1a1a;stroke-width:1.98157;stroke-dasharray:none"
         d="M 31.262176,70.602408 V 59.880857"
         id="path127" /></g></g></svg>
