<?xml version="1.0" encoding="UTF-8" standalone="no"?>
<!-- Created with Inkscape (http://www.inkscape.org/) -->

<svg
   width="220.37227mm"
   height="43.831665mm"
   viewBox="0 0 220.37227 43.831665"
   version="1.1"
   id="svg1"
   inkscape:version="1.4 (86a8ad7, 2024-10-11)"
   sodipodi:docname="full_logo.svg"
   xml:space="preserve"
   xmlns:inkscape="http://www.inkscape.org/namespaces/inkscape"
   xmlns:sodipodi="http://sodipodi.sourceforge.net/DTD/sodipodi-0.dtd"
   xmlns="http://www.w3.org/2000/svg"
   xmlns:svg="http://www.w3.org/2000/svg"><sodipodi:namedview
     id="namedview1"
     pagecolor="#ffffff"
     bordercolor="#000000"
     borderopacity="0.25"
     inkscape:showpageshadow="2"
     inkscape:pageopacity="0.0"
     inkscape:pagecheckerboard="0"
     inkscape:deskcolor="#d1d1d1"
     inkscape:document-units="mm"
     showguides="true"
     inkscape:zoom="1.28"
     inkscape:cx="201.5625"
     inkscape:cy="112.89062"
     inkscape:window-width="2560"
     inkscape:window-height="1494"
     inkscape:window-x="-11"
     inkscape:window-y="-11"
     inkscape:window-maximized="1"
     inkscape:current-layer="g127" /><defs
     id="defs1"><rect
       x="532.03125"
       y="423.4375"
       width="362.5"
       height="110.9375"
       id="rect129" /><inkscape:perspective
       sodipodi:type="inkscape:persp3d"
       inkscape:vp_x="-90.223057 : 103.92519 : 1"
       inkscape:vp_y="0 : 516.01404 : 0"
       inkscape:vp_z="264.59146 : 42.707452 : 1"
       inkscape:persp3d-origin="25.164251 : 11.47647 : 1"
       id="perspective8" /><clipPath
       id="clipPath18"
       clipPathUnits="userSpaceOnUse"><path
         id="path16"
         d="M 0,70.548 H 108.836 V 0 H 0 Z" /></clipPath></defs><g
     inkscape:label="Layer 1"
     inkscape:groupmode="layer"
     id="layer1"
     transform="translate(-29.55258,-79.622231)"><g
       id="g127"
       transform="matrix(0.72744064,0,0,0.72744064,6.1626239,25.917763)"><g
         id="g128"
         transform="matrix(0.77945119,0,0,0.77945119,91.699582,42.860542)"><g
           id="g13"
           transform="translate(0.58465209,-0.29232605)"
           style="stroke-width:2;stroke-dasharray:none"><path
             id="path1"
             style="fill:#ff0000;stroke:#1a1a1a;stroke-width:2;stroke-dasharray:none"
             d="m 62.068883,51.383695 c 10.277999,0.0508 18.569129,8.4233 18.519599,18.70131 -0.0495,10.278003 -17.905253,45.112535 -17.905253,45.112535 0,0 -19.36498,-35.009288 -19.318003,-45.287305 0.04698,-10.27802 8.416362,-18.57228 18.694386,-18.52658"
             sodipodi:nodetypes="cscsc" /><path
             style="fill:#1a1a1a;stroke:#1a1a1a;stroke-width:2;stroke-dasharray:none"
             id="path2"
             sodipodi:type="arc"
             sodipodi:cx="61.976917"
             sodipodi:cy="71.437508"
             sodipodi:rx="7.7390623"
             sodipodi:ry="7.7390623"
             sodipodi:start="1.5757405"
             sodipodi:end="1.5752424"
             sodipodi:open="true"
             sodipodi:arc-type="arc"
             d="m 61.938654,79.176475 a 7.7390623,7.7390623 0 0 1 -7.700709,-7.776267 7.7390623,7.7390623 0 0 1 7.775308,-7.701677 7.7390623,7.7390623 0 0 1 7.702646,7.774349 7.7390623,7.7390623 0 0 1 -7.77339,7.703613" /></g><path
           id="rect126"
           style="fill:#1a1a1a;stroke:#1a1a1a;stroke-width:0.785852"
           d="M 41.183276,43.132297 108.07857,40.165155 90.687273,57.677687 23.605676,60.653094 Z"
           sodipodi:nodetypes="ccccc" /><path
           style="fill:#d4aa00;stroke:#1a1a1a;stroke-width:2;stroke-dasharray:none"
           id="path126"
           sodipodi:type="arc"
           sodipodi:cx="31.262177"
           sodipodi:cy="72.256058"
           sodipodi:rx="2.6871746"
           sodipodi:ry="2.6871746"
           sodipodi:start="1.5757405"
           sodipodi:end="1.5752424"
           sodipodi:open="true"
           sodipodi:arc-type="arc"
           d="m 31.248891,74.943199 a 2.6871746,2.6871746 0 0 1 -2.673858,-2.700092 2.6871746,2.6871746 0 0 1 2.69976,-2.674194 2.6871746,2.6871746 0 0 1 2.67453,2.699427 2.6871746,2.6871746 0 0 1 -2.699094,2.674866" /><path
           style="fill:#d4aa00;stroke:#1a1a1a;stroke-width:2;stroke-dasharray:none"
           d="M 31.262176,70.602408 V 58.40677"
           id="path127" /></g><g
         clip-path="url(#clipPath18)"
         id="g14"
         transform="matrix(1.2006968,0,0,-1.2006968,2.4323176,149.23004)"><g
           transform="translate(34.1265,24.3998)"
           id="g20"><path
             id="path22"
             style="fill:#0e1531;fill-opacity:1;fill-rule:nonzero;stroke:none"
             d="m 0,0 c -5.868,0 -9.373,3.141 -9.373,8.417 v 12.632 h 4.866 V 8.616 c 0,-3.065 1.611,-4.751 4.545,-4.751 3.008,0 4.603,1.614 4.603,4.664 v 12.52 H 9.539 V 8.501 C 9.539,3.256 5.884,0 0,0" /></g><g
           transform="translate(54.5986,24.7504)"
           id="g24"><path
             id="path26"
             style="fill:#0e1531;fill-opacity:1;fill-rule:nonzero;stroke:none"
             d="m 0,0 h -6.795 v 20.699 h 6.896 c 5.041,0 7.818,-1.958 7.818,-5.498 0,-1.863 -0.971,-3.297 -2.826,-4.175 C 7.58,10.148 8.843,8.506 8.843,6.132 8.843,2.175 5.705,0 0,0 M -2.094,3.456 H 0 c 1.893,0 4.142,0.483 4.142,2.791 0,2.378 -2.288,2.884 -4.211,2.884 h -2.025 z m 0,8.928 h 1.768 c 2.368,0 3.678,0.888 3.678,2.498 0,1.584 -1.143,2.356 -3.485,2.356 h -1.961 z" /></g><g
           transform="translate(77.0693,24.3998)"
           id="g28"><path
             id="path30"
             style="fill:#0e1531;fill-opacity:1;fill-rule:nonzero;stroke:none"
             d="m 0,0 c -6.7,0 -11.026,4.184 -11.026,10.672 0,6.411 4.484,10.723 11.158,10.723 2.475,0 4.557,-0.487 6.366,-1.491 L 6.657,19.816 5.93,15.601 5.609,15.814 c -1.776,1.193 -3.466,1.743 -5.312,1.743 -3.981,0 -6.36,-2.565 -6.36,-6.859 0,-4.216 2.46,-6.833 6.426,-6.833 1.878,0 3.726,0.564 5.65,1.722 L 6.331,5.777 7.017,1.846 6.864,1.757 C 4.889,0.626 2.452,0 0,0" /></g></g><text
         xml:space="preserve"
         style="font-size:4.36462px;text-align:start;writing-mode:lr-tb;direction:ltr;text-anchor:start;fill:#1a1a1a;stroke:#1a1a1a;stroke-width:2.74937;stroke-dasharray:none"
         x="157.47473"
         y="134.0117"
         id="text128"><tspan
           sodipodi:role="line"
           id="tspan128"
           style="stroke-width:2.74937"
           x="157.47473"
           y="134.0117" /></text><text
         xml:space="preserve"
         transform="matrix(2.5779716,0,0,2.5088207,-1200.6136,-977.89495)"
         id="text129"
         style="font-size:11.9372px;text-align:start;letter-spacing:0.429054px;writing-mode:lr-tb;direction:ltr;white-space:pre;shape-inside:url(#rect129);display:inline;fill:#1a1a1a;stroke:#1a1a1a;stroke-width:0;stroke-dasharray:none"><tspan
           x="532.03125"
           y="435.70593"
           id="tspan9"><tspan
             style="fill:#005bd8"
             id="tspan1">grad</tspan><tspan
             style="fill:#ffad32"
             id="tspan7">Map</tspan><tspan
             style="fill:#ffd353"
             id="tspan8">
</tspan></tspan></text></g></g></svg>
