<?xml version="1.0" encoding="UTF-8" standalone="no"?>
<!-- Created with Inkscape (http://www.inkscape.org/) -->

<svg
   width="50mm"
   height="50mm"
   viewBox="0 0 50 50"
   version="1.1"
   id="svg1"
   inkscape:version="1.4 (86a8ad7, 2024-10-11)"
   sodipodi:docname="icon.svg"
   xml:space="preserve"
   xmlns:inkscape="http://www.inkscape.org/namespaces/inkscape"
   xmlns:sodipodi="http://sodipodi.sourceforge.net/DTD/sodipodi-0.dtd"
   xmlns="http://www.w3.org/2000/svg"
   xmlns:svg="http://www.w3.org/2000/svg"><sodipodi:namedview
     id="namedview1"
     pagecolor="#ffffff"
     bordercolor="#000000"
     borderopacity="0.25"
     inkscape:showpageshadow="2"
     inkscape:pageopacity="0.0"
     inkscape:pagecheckerboard="0"
     inkscape:deskcolor="#d1d1d1"
     inkscape:document-units="mm"
     showguides="true"
     inkscape:zoom="1.28"
     inkscape:cx="201.95312"
     inkscape:cy="50.390625"
     inkscape:window-width="2560"
     inkscape:window-height="1494"
     inkscape:window-x="-11"
     inkscape:window-y="-11"
     inkscape:window-maximized="1"
     inkscape:current-layer="g127" /><defs
     id="defs1"><rect
       x="532.03125"
       y="423.4375"
       width="362.5"
       height="110.9375"
       id="rect129" /><inkscape:perspective
       sodipodi:type="inkscape:persp3d"
       inkscape:vp_x="-90.223058 : 110.09352 : 1"
       inkscape:vp_y="0 : 516.01402 : 0"
       inkscape:vp_z="264.59146 : 48.875785 : 1"
       inkscape:persp3d-origin="25.164251 : 17.644804 : 1"
       id="perspective8" /><clipPath
       id="clipPath18"
       clipPathUnits="userSpaceOnUse"><path
         id="path16"
         d="M 0,70.548 H 108.836 V 0 H 0 Z" /></clipPath></defs><g
     inkscape:label="Layer 1"
     inkscape:groupmode="layer"
     id="layer1"
     transform="translate(-85.688716,-79.622231)"><g
       id="g127"
       transform="matrix(0.72744064,0,0,0.72744064,6.1626239,25.917763)"><g
         id="g128"
         transform="matrix(0.77945119,0,0,0.77945119,92.372444,47.100293)"><g
           id="g13"
           transform="translate(0.58465209,-0.29232605)"
           style="stroke-width:2;stroke-dasharray:none"><path
             id="path1"
             style="fill:#ff0000;stroke:#1a1a1a;stroke-width:2;stroke-dasharray:none"
             d="m 62.068883,51.383695 c 10.277999,0.0508 18.569129,8.4233 18.519599,18.70131 -0.0495,10.278003 -17.905253,45.112535 -17.905253,45.112535 0,0 -19.36498,-35.009288 -19.318003,-45.287305 0.04698,-10.27802 8.416362,-18.57228 18.694386,-18.52658"
             sodipodi:nodetypes="cscsc" /><path
             style="fill:#1a1a1a;stroke:#1a1a1a;stroke-width:2;stroke-dasharray:none"
             id="path2"
             sodipodi:type="arc"
             sodipodi:cx="61.976917"
             sodipodi:cy="71.437508"
             sodipodi:rx="7.7390623"
             sodipodi:ry="7.7390623"
             sodipodi:start="1.5757405"
             sodipodi:end="1.5752424"
             sodipodi:open="true"
             sodipodi:arc-type="arc"
             d="m 61.938654,79.176475 a 7.7390623,7.7390623 0 0 1 -7.700709,-7.776267 7.7390623,7.7390623 0 0 1 7.775308,-7.701677 7.7390623,7.7390623 0 0 1 7.702646,7.774349 7.7390623,7.7390623 0 0 1 -7.77339,7.703613" /></g><path
           id="rect126"
           style="fill:#1a1a1a;stroke:#1a1a1a;stroke-width:0.785852"
           d="M 41.183276,43.132297 108.07857,40.165155 90.687273,57.677687 23.605676,60.653094 Z"
           sodipodi:nodetypes="ccccc" /><path
           style="fill:#d4aa00;stroke:#1a1a1a;stroke-width:2;stroke-dasharray:none"
           id="path126"
           sodipodi:type="arc"
           sodipodi:cx="31.262177"
           sodipodi:cy="72.256058"
           sodipodi:rx="2.6871746"
           sodipodi:ry="2.6871746"
           sodipodi:start="1.5757405"
           sodipodi:end="1.5752424"
           sodipodi:open="true"
           sodipodi:arc-type="arc"
           d="m 31.248891,74.943199 a 2.6871746,2.6871746 0 0 1 -2.673858,-2.700092 2.6871746,2.6871746 0 0 1 2.69976,-2.674194 2.6871746,2.6871746 0 0 1 2.67453,2.699427 2.6871746,2.6871746 0 0 1 -2.699094,2.674866" /><path
           style="fill:#d4aa00;stroke:#1a1a1a;stroke-width:2;stroke-dasharray:none"
           d="M 31.262176,70.602408 V 58.40677"
           id="path127" /></g><text
         xml:space="preserve"
         style="font-size:4.36462px;text-align:start;writing-mode:lr-tb;direction:ltr;text-anchor:start;fill:#1a1a1a;stroke:#1a1a1a;stroke-width:2.74937;stroke-dasharray:none"
         x="157.47473"
         y="134.0117"
         id="text128"><tspan
           sodipodi:role="line"
           id="tspan128"
           style="stroke-width:2.74937"
           x="157.47473"
           y="134.0117" /></text></g></g></svg>
